<svg xmlns="http://www.w3.org/2000/svg" viewBox="0 0 24 24" id="renault">
  <path fill="#607D8B" d="M21.49 12c-.01.28-.09.58-.24.83l-6.15 10.8c-.17.28-.28.37-.661.37H9.59c-.439 0-.5-.11-.62-.33l-.33-.57 3.591-6.31L14.96 12h6.53zm-9.72 4.58-3.42 6.01-5.72-10.03c-.09-.16-.13-.36-.13-.56h6.66l2.61 4.58z"></path>
  <path fill="#ECEFF1" d="M12.061 6.86 9.14 11.97l.02.03H2.5c0-.25.08-.53.2-.73L8.87.43c.17-.29.39-.43.74-.43h4.81c.35 0 .57.14.74.43l.279.5-3.378 5.93zM14.96 12l.021-.03-2.62-4.59 3.37-5.94 5.609 9.83c.12.22.17.47.15.73h-6.53z"></path>
  <path fill="#546D79" d="M12 17.195 8.64 23.1l.33.57c.12.22.181.33.62.33H12v-6.805zM9.16 12H2.5c0 .2.04.4.13.56l5.72 10.03 3.42-6.01L9.16 12z"></path>
  <path fill="#CDD0D2" d="M12 0H9.61c-.35 0-.57.14-.74.43L2.7 11.27c-.12.2-.2.48-.2.73h6.66l-.02-.03L12 6.966V0z"></path>
</svg>
